<svg xmlns="http://www.w3.org/2000/svg" width="800" height="800" viewBox="0 0 800 800">
  <rect width="800" height="800" fill="#d8d0c3"/>
  <ellipse cx="400" cy="728" rx="250" ry="35" fill="#665c51" opacity=".18"/>
  <path d="M275 135c34-26 71-39 125-39s91 13 125 39l128 91-70 112-64-39 24 392H257l24-392-64 39-70-112z" fill="#f4f0e8"/>
  <path d="M334 113c8 54 35 79 66 79s58-25 66-79" fill="#d5cec2"/>
  <path d="M350 104c4 36 20 55 50 55s46-19 50-55c-14-5-31-8-50-8s-36 3-50 8z" fill="#b9b0a4"/>
  <path d="M275 135c34-26 71-39 125-39s91 13 125 39l128 91-70 112-64-39 24 392H257l24-392-64 39-70-112z" fill="none" stroke="#b4aa9c" stroke-width="5"/>
</svg>
