<svg width="5400" height="7200" viewBox="0 0 5400 7200" xmlns="http://www.w3.org/2000/svg">
  <defs>
    <filter id="shadow-autumn-poster" x="-20%" y="-20%" width="140%" height="140%">
      <feDropShadow dx="0" dy="24" stdDeviation="30" flood-color="#431407" flood-opacity="0.3"/>
    </filter>
    <linearGradient id="foliage-grad-p" x1="0" y1="0" x2="1" y2="1">
      <stop offset="0%" stop-color="#EA580C"/>
      <stop offset="50%" stop-color="#D97706"/>
      <stop offset="100%" stop-color="#B45309"/>
    </linearGradient>
  </defs>

  <!-- Cascading Maple & Oak Leaves Graphic -->
  <g filter="url(#shadow-autumn-poster)">
    <g transform="translate(2700, 3600) scale(2.4)" fill="url(#foliage-grad-p)" opacity="0.95">
      <path d="M 0,-400 Q 80,-300 120,-320 Q 200,-150 150,-100 Q 320,-80 340,50 Q 250,150 180,120 Q 150,260 80,240 L 40,400 L -40,400 L -80,240 Q -150,260 -180,120 Q -250,150 -340,50 Q -320,-80 -150,-100 Q -200,-150 -120,-320 Q -80,-300 0,-400 Z" stroke="#7C2D12" stroke-width="9" />
    </g>

    <g transform="translate(1300, 2600) rotate(-25) scale(1.6)" fill="#B45309">
      <path d="M 0,0 C -60,60 -90,160 0,240 C -50,300 0,380 90,400 C 130,460 210,440 230,380 C 290,380 310,300 270,240 C 330,160 270,70 190,70 Z" />
    </g>
    <g transform="translate(4100, 2600) rotate(25) scale(1.6)" fill="#D97706">
      <path d="M 0,0 C -60,60 -90,160 0,240 C -50,300 0,380 90,400 C 130,460 210,440 230,380 C 290,380 310,300 270,240 C 330,160 270,70 190,70 Z" />
    </g>
  </g>

  <!-- Large Flourish Script: "Autumn" -->
  <g filter="url(#shadow-autumn-poster)">
    <text x="2700" y="1750" font-family="'Brush Script MT', 'Palatino', 'Georgia', cursive" font-size="640" font-style="italic" font-weight="bold" fill="#7C2D12" text-anchor="middle">Autumn</text>
    <text x="2700" y="1720" font-family="'Brush Script MT', 'Palatino', 'Georgia', cursive" font-size="640" font-style="italic" font-weight="bold" fill="#F97316" text-anchor="middle">Autumn</text>
    <text x="2700" y="1700" font-family="'Brush Script MT', 'Palatino', 'Georgia', cursive" font-size="640" font-style="italic" font-weight="bold" fill="#FEF3C7" text-anchor="middle">Autumn</text>
  </g>

  <!-- Serif Block: "STATE OF MIND" -->
  <g filter="url(#shadow-autumn-poster)" transform="translate(2700, 5450)">
    <line x1="-1400" y1="-120" x2="-900" y2="-120" stroke="#CA8A04" stroke-width="14" />
    <circle cx="-850" cy="-120" r="20" fill="#CA8A04" />
    <line x1="900" y1="-120" x2="1400" y2="-120" stroke="#CA8A04" stroke-width="14" />
    <circle cx="850" cy="-120" r="20" fill="#CA8A04" />

    <text x="0" y="0" font-family="'Impact', 'Arial Black', sans-serif" font-size="440" font-weight="900" fill="#431407" text-anchor="middle" letter-spacing="34">STATE OF MIND</text>
    <text x="0" y="-20" font-family="'Impact', 'Arial Black', sans-serif" font-size="440" font-weight="900" fill="#D97706" text-anchor="middle" letter-spacing="34">STATE OF MIND</text>
    <text x="0" y="-40" font-family="'Impact', 'Arial Black', sans-serif" font-size="440" font-weight="900" fill="#FFFBEB" text-anchor="middle" letter-spacing="34" stroke="#431407" stroke-width="8">STATE OF MIND</text>

    <text x="0" y="360" font-family="'Georgia', serif" font-size="120" font-style="italic" font-weight="700" fill="#78350F" text-anchor="middle" letter-spacing="18">GOLDEN LEAVES &amp; CRISP BREEZES • 2026</text>
  </g>
</svg>